<svg xmlns="http://www.w3.org/2000/svg" viewBox="0 0 338.05 247.03"><defs><style>.cls-1{fill:#fff;}.cls-2{fill:#e6e6e6;}.cls-3{fill:#3f3d56;}.cls-4{fill:#6c63ff;}</style></defs><g id="Layer_2" data-name="Layer 2"><g id="ab80713a-a851-46d9-b7e4-877a3942e50e"><path class="cls-1" d="M51.69,241H332.05V43.27H51.69Z"/><path class="cls-2" d="M338.05,247H45.69V37.27H338.05ZM51.69,241H332.05V43.27H51.69Z"/><polygon class="cls-3" points="26.88 222.85 24.81 222.85 24.81 21.87 305.18 21.87 305.18 23.95 26.88 23.95 26.88 222.85"/><polygon class="cls-3" points="2.07 200.99 0 200.99 0 0 280.37 0 280.37 2.08 2.07 2.08 2.07 200.99"/><ellipse class="cls-1" cx="191.87" cy="142.15" rx="59.96" ry="60.4"/><path class="cls-3" d="M191.87,203.55c-33.61,0-61-27.55-61-61.4s27.35-61.4,61-61.4,61,27.54,61,61.4S225.49,203.55,191.87,203.55Zm0-120.8c-32.51,0-59,26.65-59,59.4s26.45,59.4,59,59.4,59-26.65,59-59.4S224.38,82.75,191.87,82.75Z"/><polygon class="cls-4" points="175.3 112.18 175.3 173.16 225.05 142.25 175.3 112.18"/></g></g></svg>