<svg id="Capa_1" enable-background="new 0 0 512.001 512.001" height="512" viewBox="0 0 512.001 512.001" width="512" xmlns="http://www.w3.org/2000/svg"><path d="m422 240h-100c-8.284 0-15 6.716-15 15s6.716 15 15 15h100c8.284 0 15-6.716 15-15s-6.715-15-15-15z"/><path d="m422 180h-40c-8.284 0-15 6.716-15 15s6.716 15 15 15h40c8.284 0 15-6.716 15-15s-6.715-15-15-15z"/><path d="m422 60h-100c-8.284 0-15 6.716-15 15s6.716 15 15 15h100c8.284 0 15-6.716 15-15s-6.715-15-15-15z"/><path d="m497 300v-270c8.284 0 15-6.716 15-15s-6.716-15-15-15h-250c-8.284 0-15 6.716-15 15s6.716 15 15 15v80h-54.604c7.933-11.348 12.604-25.135 12.604-40 0-38.599-31.401-70-70-70s-70 31.401-70 70c0 15.489 5.065 29.812 13.614 41.419-44.601 7.787-78.614 46.785-78.614 93.581v110c0 12.254 4.837 23.708 13.621 32.255 8.478 8.247 19.569 12.745 31.359 12.745.423 0 .85-.006 1.274-.018 4.802-.132 9.42-1.059 13.746-2.635v109.653c0 24.813 20.187 45 45 45 11.517 0 22.032-4.354 30-11.495 7.968 7.141 18.483 11.495 30 11.495 24.813 0 45-20.187 45-45v-267h37v100c-8.284 0-15 6.716-15 15s6.716 15 15 15h110v52.373l-72.393 106.177c-4.667 6.845-2.901 16.177 3.943 20.844 2.586 1.763 5.526 2.607 8.437 2.607 4.793 0 9.504-2.292 12.407-6.551l47.606-69.823v61.373c0 8.284 6.716 15 15 15s15-6.716 15-15v-61.373l47.606 69.823c2.904 4.259 7.613 6.551 12.407 6.551 2.91 0 5.851-.845 8.437-2.607 6.845-4.667 8.61-13.999 3.943-20.844l-72.393-106.177v-52.373h110c8.284 0 15-6.716 15-15s-6.715-15-15-15zm-362-270c22.056 0 40 17.944 40 40s-17.944 40-40 40-40-17.944-40-40 17.945-40 40-40zm60 140c-8.284 0-15 6.716-15 15v282c0 8.271-6.729 15-15 15s-15-6.729-15-15v-150c0-8.284-6.716-15-15-15s-15 6.716-15 15v150c0 8.271-6.729 15-15 15s-15-6.729-15-15v-258.667c0-8.284-6.716-15-15-15s-15 6.716-15 15v106.043c0 8.392-6.535 15.397-14.568 15.618-4.065.127-7.963-1.394-10.89-4.241-2.928-2.85-4.542-6.668-4.542-10.753v-110c0-35.841 29.159-65 65-65h217c8.271 0 15 6.729 15 15s-6.729 15-15 15zm82 130v-100h35c24.813 0 45-20.187 45-45 0-1.691-.102-3.357-.284-5h65.284c8.284 0 15-6.716 15-15s-6.716-15-15-15h-81.759c-7.728-6.248-17.552-10-28.241-10h-35v-80h190v270z"/></svg>