<svg xmlns="http://www.w3.org/2000/svg" width="24.455" height="24.51" viewBox="0 0 24.455 24.51">
  <g id="Group_9" data-name="Group 9" transform="translate(-558.486 -1340.51)">
    <path id="Path_10" data-name="Path 10" d="M563.662,1360.558l-1.18,1.307a12.2,12.2,0,0,0,4.075,2.434,12.389,12.389,0,0,0,1.481.429l.383-1.718a10.778,10.778,0,0,1-1.27-.368A10.422,10.422,0,0,1,563.662,1360.558Z" fill="#fff"/>
    <path id="Path_11" data-name="Path 11" d="M568.19,1342.576l-.422-1.709a12.325,12.325,0,0,0-5.49,2.987l1.208,1.281A10.56,10.56,0,0,1,568.19,1342.576Z" fill="#fff"/>
    <path id="Path_12" data-name="Path 12" d="M560.812,1349.23a10.491,10.491,0,0,1,1.264-2.458l-1.447-1a12.33,12.33,0,0,0-2.143,5.874l1.754.162A10.445,10.445,0,0,1,560.812,1349.23Z" fill="#fff"/>
    <path id="Path_13" data-name="Path 13" d="M558.515,1354.166a12.3,12.3,0,0,0,2.276,5.822l1.423-1.037a10.529,10.529,0,0,1-1.95-4.987Z" fill="#fff"/>
    <path id="Path_14" data-name="Path 14" d="M582.882,1351.626c-.011-.122-.029-.241-.043-.362-.019-.15-.031-.3-.055-.451l-.014,0a12.18,12.18,0,0,0-.654-2.435l.009,0c-.015-.039-.038-.076-.053-.116a12.27,12.27,0,0,0-1.357-2.516c-.091-.13-.188-.253-.284-.379-.19-.25-.388-.491-.6-.726-.12-.134-.237-.269-.362-.4q-.4-.408-.829-.778c-.06-.051-.111-.11-.172-.16l0,0a12.252,12.252,0,0,0-2.106-1.392l0,0c-.044-.023-.093-.038-.138-.061a12.157,12.157,0,0,0-1.276-.557c-.045-.017-.087-.042-.133-.058s-.1-.03-.156-.048c-.246-.085-.5-.161-.749-.23-.134-.037-.268-.071-.4-.1-.233-.056-.467-.1-.7-.146-.169-.03-.339-.055-.51-.078-.21-.027-.42-.052-.633-.069-.2-.015-.394-.023-.591-.03-.129,0-.255-.019-.385-.019v.015c-.139,0-.278-.01-.418-.005l.062,1.759c.231-.008.461,0,.692.009.166.005.33.012.494.025.186.014.371.035.556.06.141.019.281.04.42.064.208.037.416.079.622.128.108.026.215.054.322.084.225.061.447.128.668.2.074.025.147.053.221.08a10.779,10.779,0,0,1,1.123.491,10.544,10.544,0,0,1,2.03,1.355q.386.328.737.691c.1.105.2.216.295.325q.277.312.531.645c.076.1.153.2.226.3a10.528,10.528,0,0,1,1.171,2.172,10.41,10.41,0,0,1,.656,2.576c.011.1.025.2.035.293.03.322.049.648.049.978s-.019.672-.05,1c-.01.1-.028.208-.041.312-.027.217-.058.432-.1.644-.026.14-.059.279-.091.419q-.06.258-.132.513c-.043.148-.089.3-.138.442-.043.13-.092.257-.141.384-.109.289-.233.571-.366.848-.052.106-.1.214-.154.318a10.3,10.3,0,0,1-.594,1c-.079.117-.17.226-.254.34-.148.2-.3.4-.464.591-.122.142-.248.279-.377.415-.153.16-.312.314-.474.464a10.558,10.558,0,0,1-2.084,1.515,10.427,10.427,0,0,1-1.086.513c-.088.036-.179.065-.269.1-.293.11-.589.208-.891.291-.116.033-.234.063-.352.091-.283.068-.569.121-.857.165-.125.019-.248.043-.374.057-.342.04-.685.06-1.03.066-.059,0-.115.009-.174.009v0h-.118l-.023,1.76h.141c.059,0,.117-.011.175-.011a12.249,12.249,0,0,0,1.234-.079c.144-.017.286-.044.429-.066.34-.051.676-.114,1.006-.193.138-.034.275-.069.411-.106q.528-.147,1.035-.338c.107-.04.215-.075.321-.118a12.111,12.111,0,0,0,1.262-.595c.016-.009.034-.015.05-.024l0-.005a12.286,12.286,0,0,0,2.065-1.447l.011.013c.116-.1.215-.217.328-.321.183-.17.362-.344.535-.525.153-.161.3-.323.447-.492.19-.222.368-.454.542-.689.1-.133.2-.258.3-.4a12.228,12.228,0,0,0,.7-1.167c.063-.12.118-.244.177-.366q.235-.486.43-.995c.027-.07.064-.135.089-.206s.049-.162.076-.242c.057-.17.109-.341.159-.514.058-.2.108-.4.156-.6.037-.162.075-.323.106-.488.048-.248.083-.5.115-.748.015-.123.036-.245.048-.369.037-.387.06-.776.06-1.166S582.918,1352.006,582.882,1351.626Z" fill="#fff"/>
    <path id="Path_15" data-name="Path 15" d="M575.784,1352.127,569.5,1347.5a.823.823,0,0,0-1.31.663v9.246a.822.822,0,0,0,1.31.663l6.284-4.623A.822.822,0,0,0,575.784,1352.127Z" fill="#fff"/>
  </g>
</svg>
